<svg xmlns="http://www.w3.org/2000/svg" viewBox="0 0 800 200" preserveAspectRatio="none"><path d="M0 101.587l5.333-3.174c5.334-3.175 16-9.524 26.667-14.286 10.667-4.762 21.333-7.937 32-7.143 10.667.794 21.333 5.556 32 10.582 10.667 5.027 21.333 10.318 32 24.074 10.667 13.757 21.333 35.98 32 36.773 10.667.793 21.333-19.842 32-26.984 10.667-7.144 21.333-.795 32-1.324 10.667-.53 21.333-7.937 32-7.408 10.667.53 21.333 8.995 32 7.408 10.667-1.587 21.333-13.228 32-11.11 10.667 2.115 21.333 17.988 32 32.538 10.667 14.55 21.333 27.778 32 36.773 10.667 8.995 21.333 13.756 32 12.434 10.667-1.322 21.333-8.73 32-10.58 10.667-1.853 21.333 1.85 32-8.73 10.667-10.583 21.333-35.45 32-42.33 10.667-6.878 21.333 4.233 32 11.905 10.667 7.672 21.333 11.905 32 12.17 10.667.264 21.333-3.44 32 2.116 10.667 5.557 21.333 20.37 32 14.022 10.667-6.35 21.333-33.862 32-52.38 10.667-18.52 21.333-28.043 32-43.916 10.667-15.873 21.333-38.095 32-46.56 10.667-8.467 21.333-3.176 32-5.292 10.667-2.116 21.333-11.64 26.667-16.402L800 0" id="github"/><path d="M0 192.063l5.333.265c5.334.265 16 .794 26.667.794 10.667 0 21.333-.53 32-.794a645.22 645.22 0 0 1 32 0c10.667.265 21.333.794 32 1.058a645.22 645.22 0 0 0 32 0c10.667-.264 21.333-.793 32-.793 10.667 0 21.333.53 32 .793 10.667.265 21.333.265 32 1.058 10.667.794 21.333 2.38 32 3.175 10.667.793 21.333.793 32 0 10.667-.795 21.333-2.382 32-3.97l32-4.76c10.667-1.588 21.333-3.176 32-2.91 10.667.263 21.333 2.38 32 2.91 10.667.528 21.333-.53 32-.795 10.667-.264 21.333.265 32 1.323 10.667 1.058 21.333 2.645 32 3.44 10.667.793 21.333.793 32 .528 10.667-.264 21.333-.793 32-.793 10.667 0 21.333.53 32 1.322 10.667.794 21.333 1.852 32 2.38 10.667.53 21.333.53 32 .53 10.667 0 21.333 0 32 .265 10.667.264 21.333.794 32 .794 10.667 0 21.333-.53 26.667-.794l5.333-.265" id="instagram"/><path d="M0 176.19l5.333-5.29c5.334-5.292 16-15.874 26.667-17.196 10.667-1.323 21.333 6.613 32 7.936 10.667 1.323 21.333-3.968 32-6.084 10.667-2.117 21.333-1.06 32-2.117 10.667-1.06 21.333-4.234 32-.265 10.667 3.968 21.333 15.08 32 17.99 10.667 2.91 21.333-2.382 32-2.646 10.667-.266 21.333 4.496 32 1.32 10.667-3.173 21.333-14.284 32-22.22 10.667-7.937 21.333-12.7 32-12.435 10.667.265 21.333 5.556 32 11.376 10.667 5.82 21.333 12.17 32 19.313 10.667 7.143 21.333 15.08 32 15.608 10.667.53 21.333-6.348 32-8.993 10.667-2.646 21.333-1.058 32-1.058 10.667 0 21.333-1.59 32-4.763 10.667-3.175 21.333-7.937 32-10.847 10.667-2.91 21.333-3.968 32-2.116 10.667 1.852 21.333 6.613 32 11.64 10.667 5.026 21.333 10.317 32 12.698 10.667 2.38 21.333 1.852 32 0 10.667-1.852 21.333-5.026 32-8.73a401.83 401.83 0 0 0 32-12.698c10.667-4.762 21.333-10.053 32-11.376 10.667-1.323 21.333 1.323 26.667 2.646l5.333 1.322" id="twitter"/><desc>{&quot;github&quot;:1359,&quot;instagram&quot;:110,&quot;twitter&quot;:633}</desc></svg>